<mxfile host="drawio-plugin" modified="2024-06-15T11:16:29.631Z" agent="Mozilla/5.0 (X11; Linux x86_64) AppleWebKit/537.36 (KHTML, like Gecko) Chrome/122.0.0.0 Safari/537.36" etag="7ayJXiygdtLs1iMoPhPW" version="22.1.22" type="embed">
  <diagram id="ERxrzM34JgP0kjhDalQf" name="Page-1">
    <mxGraphModel dx="959" dy="773" grid="1" gridSize="10" guides="1" tooltips="1" connect="1" arrows="1" fold="1" page="0" pageScale="1" pageWidth="827" pageHeight="1169" background="none" math="0" shadow="0">
      <root>
        <mxCell id="0" />
        <mxCell id="1" parent="0" />
        <mxCell id="224" value="Persona" style="shape=umlActor;verticalLabelPosition=bottom;verticalAlign=top;html=1;outlineConnect=0;fillColor=#2A2A2A;strokeColor=#000000;fontColor=#1C1C1C;" parent="1" vertex="1">
          <mxGeometry x="-80" y="60" width="30" height="60" as="geometry" />
        </mxCell>
        <mxCell id="225" value="" style="endArrow=none;html=1;rounded=0;fontColor=#0D0D0D;strokeColor=#191919;strokeWidth=2;" parent="1" source="240" edge="1">
          <mxGeometry width="50" height="50" relative="1" as="geometry">
            <mxPoint x="-65.5" y="500" as="sourcePoint" />
            <mxPoint x="-65.5" y="140" as="targetPoint" />
          </mxGeometry>
        </mxCell>
        <mxCell id="228" value="" style="swimlane;startSize=0;strokeColor=#000000;fontColor=#0D0D0D;fillColor=#2A2A2A;strokeWidth=2;" parent="1" vertex="1">
          <mxGeometry x="10" y="90" width="130" height="60" as="geometry" />
        </mxCell>
        <mxCell id="230" value="CatalogoController" style="text;html=1;align=center;verticalAlign=middle;resizable=0;points=[];autosize=1;strokeColor=none;fillColor=none;fontColor=#0D0D0D;" parent="228" vertex="1">
          <mxGeometry x="5" y="15" width="120" height="30" as="geometry" />
        </mxCell>
        <mxCell id="234" value="" style="endArrow=classic;html=1;rounded=0;strokeColor=#191919;strokeWidth=2;fontColor=#0D0D0D;" parent="1" edge="1">
          <mxGeometry width="50" height="50" relative="1" as="geometry">
            <mxPoint x="-60" y="190" as="sourcePoint" />
            <mxPoint x="70" y="190" as="targetPoint" />
          </mxGeometry>
        </mxCell>
        <mxCell id="240" value="" style="swimlane;startSize=0;labelBackgroundColor=none;strokeColor=#000000;strokeWidth=2;fontColor=#0D0D0D;fillColor=#2A2A2A;" parent="1" vertex="1">
          <mxGeometry x="-70" y="170" width="10" height="50" as="geometry" />
        </mxCell>
        <mxCell id="246" value="" style="endArrow=classic;html=1;rounded=0;strokeColor=#191919;strokeWidth=2;fontColor=#0D0D0D;" parent="1" edge="1">
          <mxGeometry width="50" height="50" relative="1" as="geometry">
            <mxPoint x="90" y="240" as="sourcePoint" />
            <mxPoint x="390" y="240" as="targetPoint" />
          </mxGeometry>
        </mxCell>
        <mxCell id="247" value="getInstance" style="text;html=1;strokeColor=none;fillColor=none;align=center;verticalAlign=middle;whiteSpace=wrap;rounded=0;labelBackgroundColor=none;strokeWidth=2;fontColor=#0D0D0D;" parent="1" vertex="1">
          <mxGeometry x="150" y="210" width="60" height="30" as="geometry" />
        </mxCell>
        <mxCell id="266" value="" style="swimlane;startSize=0;labelBackgroundColor=none;strokeColor=#000000;strokeWidth=2;fontColor=#0D0D0D;fillColor=#2A2A2A;" parent="1" vertex="1">
          <mxGeometry x="75" y="170" width="10" height="100" as="geometry" />
        </mxCell>
        <mxCell id="267" value="" style="endArrow=none;html=1;rounded=0;fontColor=#0D0D0D;strokeColor=#191919;strokeWidth=2;" parent="1" edge="1">
          <mxGeometry width="50" height="50" relative="1" as="geometry">
            <mxPoint x="80" y="170" as="sourcePoint" />
            <mxPoint x="79.75999999999999" y="150" as="targetPoint" />
          </mxGeometry>
        </mxCell>
        <mxCell id="271" value="" style="endArrow=none;dashed=1;html=1;rounded=0;entryX=0.5;entryY=1;entryDx=0;entryDy=0;strokeWidth=2;strokeColor=#000000;startArrow=none;exitX=0.035;exitY=0.214;exitDx=0;exitDy=0;exitPerimeter=0;" parent="1" source="296" target="266" edge="1">
          <mxGeometry width="50" height="50" relative="1" as="geometry">
            <mxPoint x="80" y="560" as="sourcePoint" />
            <mxPoint x="120" y="290" as="targetPoint" />
          </mxGeometry>
        </mxCell>
        <mxCell id="274" value="" style="endArrow=none;dashed=1;html=1;rounded=0;entryX=0.501;entryY=1.02;entryDx=0;entryDy=0;strokeWidth=2;strokeColor=#000000;entryPerimeter=0;" parent="1" target="240" edge="1">
          <mxGeometry width="50" height="50" relative="1" as="geometry">
            <mxPoint x="-65" y="560" as="sourcePoint" />
            <mxPoint x="-65.38" y="250" as="targetPoint" />
          </mxGeometry>
        </mxCell>
        <mxCell id="287" value="load" style="text;html=1;strokeColor=none;fillColor=none;align=center;verticalAlign=middle;whiteSpace=wrap;rounded=0;labelBackgroundColor=none;strokeWidth=2;fontColor=#0D0D0D;" parent="1" vertex="1">
          <mxGeometry x="-30" y="195" width="60" height="30" as="geometry" />
        </mxCell>
        <mxCell id="289" value="" style="swimlane;startSize=0;strokeColor=#000000;fontColor=#0D0D0D;fillColor=#2A2A2A;strokeWidth=2;" parent="1" vertex="1">
          <mxGeometry x="340" y="90" width="110" height="60" as="geometry" />
        </mxCell>
        <mxCell id="290" value="CatalogoModel" style="text;html=1;align=center;verticalAlign=middle;resizable=0;points=[];autosize=1;strokeColor=none;fillColor=none;fontColor=#0D0D0D;" parent="289" vertex="1">
          <mxGeometry x="5" y="15" width="100" height="30" as="geometry" />
        </mxCell>
        <mxCell id="291" value="" style="endArrow=none;dashed=1;html=1;rounded=0;entryX=0.589;entryY=-0.01;entryDx=0;entryDy=0;strokeWidth=2;strokeColor=#000000;entryPerimeter=0;exitX=0.5;exitY=0;exitDx=0;exitDy=0;" parent="1" source="334" target="296" edge="1">
          <mxGeometry width="50" height="50" relative="1" as="geometry">
            <mxPoint x="395" y="560" as="sourcePoint" />
            <mxPoint x="394.5" y="150" as="targetPoint" />
          </mxGeometry>
        </mxCell>
        <mxCell id="294" value="" style="endArrow=classic;html=1;rounded=0;strokeColor=#191919;strokeWidth=2;fontColor=#0D0D0D;dashed=1;" parent="1" edge="1">
          <mxGeometry width="50" height="50" relative="1" as="geometry">
            <mxPoint x="390" y="260" as="sourcePoint" />
            <mxPoint x="90" y="260" as="targetPoint" />
          </mxGeometry>
        </mxCell>
        <mxCell id="295" value="catalogo" style="text;html=1;strokeColor=none;fillColor=none;align=center;verticalAlign=middle;whiteSpace=wrap;rounded=0;labelBackgroundColor=none;strokeWidth=2;fontColor=#0D0D0D;" parent="1" vertex="1">
          <mxGeometry x="180" y="260" width="60" height="30" as="geometry" />
        </mxCell>
        <mxCell id="296" value="&lt;b&gt;loop&lt;/b&gt;" style="shape=umlFrame;whiteSpace=wrap;html=1;labelBackgroundColor=none;strokeColor=#000000;strokeWidth=2;fontColor=#0D0D0D;fillColor=none;width=100;height=20;" parent="1" vertex="1">
          <mxGeometry x="60" y="290" width="570" height="100" as="geometry" />
        </mxCell>
        <mxCell id="297" value="" style="swimlane;startSize=0;strokeColor=#000000;fontColor=#0D0D0D;fillColor=#2A2A2A;strokeWidth=2;" parent="1" vertex="1">
          <mxGeometry x="490" y="300" width="115" height="60" as="geometry" />
        </mxCell>
        <mxCell id="298" value="AutoElement" style="text;html=1;align=center;verticalAlign=middle;resizable=0;points=[];autosize=1;strokeColor=none;fillColor=none;fontColor=#0D0D0D;" parent="297" vertex="1">
          <mxGeometry x="10" y="15" width="90" height="30" as="geometry" />
        </mxCell>
        <mxCell id="302" value="&amp;lt;create&amp;gt;" style="text;html=1;strokeColor=none;fillColor=none;align=center;verticalAlign=middle;whiteSpace=wrap;rounded=0;labelBackgroundColor=none;strokeWidth=2;fontColor=#0D0D0D;" parent="297" vertex="1">
          <mxGeometry x="25" width="60" height="30" as="geometry" />
        </mxCell>
        <mxCell id="299" value="" style="endArrow=classic;html=1;rounded=0;strokeColor=#191919;strokeWidth=2;fontColor=#0D0D0D;" parent="1" edge="1">
          <mxGeometry width="50" height="50" relative="1" as="geometry">
            <mxPoint x="85" y="340" as="sourcePoint" />
            <mxPoint x="490" y="340" as="targetPoint" />
          </mxGeometry>
        </mxCell>
        <mxCell id="300" value="loadAutoElement" style="text;html=1;strokeColor=none;fillColor=none;align=center;verticalAlign=middle;whiteSpace=wrap;rounded=0;labelBackgroundColor=none;strokeWidth=2;fontColor=#0D0D0D;" parent="1" vertex="1">
          <mxGeometry x="250" y="315" width="130" height="30" as="geometry" />
        </mxCell>
        <mxCell id="301" value="&lt;font color=&quot;#171717&quot;&gt;[for each auto in Catalogo]&lt;/font&gt;" style="text;html=1;strokeColor=none;fillColor=none;align=center;verticalAlign=middle;whiteSpace=wrap;rounded=0;" parent="1" vertex="1">
          <mxGeometry x="60" y="370" width="240" height="20" as="geometry" />
        </mxCell>
        <mxCell id="303" value="" style="endArrow=classic;html=1;rounded=0;strokeColor=#191919;strokeWidth=2;fontColor=#0D0D0D;entryX=-0.092;entryY=0.25;entryDx=0;entryDy=0;entryPerimeter=0;" parent="1" edge="1">
          <mxGeometry width="50" height="50" relative="1" as="geometry">
            <mxPoint x="-60" y="430" as="sourcePoint" />
            <mxPoint x="74.07999999999993" y="430" as="targetPoint" />
          </mxGeometry>
        </mxCell>
        <mxCell id="304" value="selectAuto" style="text;html=1;strokeColor=none;fillColor=none;align=center;verticalAlign=middle;whiteSpace=wrap;rounded=0;labelBackgroundColor=none;strokeWidth=2;fontColor=#0D0D0D;" parent="1" vertex="1">
          <mxGeometry x="-40" y="400" width="60" height="30" as="geometry" />
        </mxCell>
        <mxCell id="305" value="" style="endArrow=classic;html=1;rounded=0;strokeColor=#191919;strokeWidth=2;fontColor=#0D0D0D;exitX=1.095;exitY=0.883;exitDx=0;exitDy=0;exitPerimeter=0;entryX=-0.027;entryY=0.398;entryDx=0;entryDy=0;entryPerimeter=0;" parent="1" target="334" edge="1">
          <mxGeometry width="50" height="50" relative="1" as="geometry">
            <mxPoint x="82.98000000000005" y="460.64" as="sourcePoint" />
            <mxPoint x="400" y="460" as="targetPoint" />
          </mxGeometry>
        </mxCell>
        <mxCell id="306" value="setSelectedAuto" style="text;html=1;strokeColor=none;fillColor=none;align=center;verticalAlign=middle;whiteSpace=wrap;rounded=0;labelBackgroundColor=none;strokeWidth=2;fontColor=#0D0D0D;" parent="1" vertex="1">
          <mxGeometry x="190" y="430" width="60" height="30" as="geometry" />
        </mxCell>
        <mxCell id="308" value="redirect" style="text;html=1;strokeColor=none;fillColor=none;align=center;verticalAlign=middle;whiteSpace=wrap;rounded=0;labelBackgroundColor=none;strokeWidth=2;fontColor=#0D0D0D;" parent="1" vertex="1">
          <mxGeometry x="120" y="500" width="60" height="30" as="geometry" />
        </mxCell>
        <mxCell id="329" value="" style="endArrow=classic;html=1;rounded=0;strokeColor=#191919;strokeWidth=2;fontColor=#0D0D0D;entryX=1.2;entryY=0.931;entryDx=0;entryDy=0;entryPerimeter=0;exitX=1.2;exitY=0.464;exitDx=0;exitDy=0;exitPerimeter=0;" parent="1" source="332" target="332" edge="1">
          <mxGeometry width="50" height="50" relative="1" as="geometry">
            <mxPoint x="80" y="470" as="sourcePoint" />
            <mxPoint x="80" y="540" as="targetPoint" />
            <Array as="points">
              <mxPoint x="120" y="470" />
              <mxPoint x="120" y="540" />
            </Array>
          </mxGeometry>
        </mxCell>
        <mxCell id="330" value="" style="swimlane;startSize=0;labelBackgroundColor=#FFFFFF;strokeColor=#000000;strokeWidth=2;fontColor=#0D0D0D;fillColor=#FFFFFF;gradientColor=none;" parent="1" vertex="1">
          <mxGeometry x="390" y="210" width="10" height="80" as="geometry" />
        </mxCell>
        <mxCell id="331" value="" style="swimlane;startSize=0;labelBackgroundColor=#FFFFFF;strokeColor=#000000;strokeWidth=2;fontColor=#0D0D0D;fillColor=#FFFFFF;gradientColor=none;" parent="1" vertex="1">
          <mxGeometry x="75" y="315" width="10" height="50" as="geometry" />
        </mxCell>
        <mxCell id="335" value="" style="endArrow=none;dashed=1;html=1;rounded=0;strokeWidth=2;strokeColor=#000000;startArrow=none;exitX=0.035;exitY=0.214;exitDx=0;exitDy=0;exitPerimeter=0;entryX=0.5;entryY=1;entryDx=0;entryDy=0;" parent="331" target="331" edge="1">
          <mxGeometry width="50" height="50" relative="1" as="geometry">
            <mxPoint x="4.69000000000004" y="91.39999999999998" as="sourcePoint" />
            <mxPoint x="5" y="80" as="targetPoint" />
          </mxGeometry>
        </mxCell>
        <mxCell id="332" value="" style="swimlane;startSize=0;labelBackgroundColor=#FFFFFF;strokeColor=#000000;strokeWidth=2;fontColor=#0D0D0D;fillColor=#FFFFFF;gradientColor=none;" parent="1" vertex="1">
          <mxGeometry x="75" y="400" width="10" height="150" as="geometry" />
        </mxCell>
        <mxCell id="333" value="" style="endArrow=none;dashed=1;html=1;rounded=0;entryX=0.5;entryY=1;entryDx=0;entryDy=0;strokeWidth=2;strokeColor=#000000;" parent="1" target="332" edge="1">
          <mxGeometry width="50" height="50" relative="1" as="geometry">
            <mxPoint x="80" y="560" as="sourcePoint" />
            <mxPoint x="80" y="250" as="targetPoint" />
          </mxGeometry>
        </mxCell>
        <mxCell id="334" value="" style="swimlane;startSize=0;labelBackgroundColor=#FFFFFF;strokeColor=#000000;strokeWidth=2;fontColor=#0D0D0D;fillColor=#FFFFFF;gradientColor=none;" parent="1" vertex="1">
          <mxGeometry x="390" y="400" width="10" height="150" as="geometry" />
        </mxCell>
        <mxCell id="336" value="" style="endArrow=none;dashed=1;html=1;rounded=0;entryX=0.5;entryY=1;entryDx=0;entryDy=0;strokeWidth=2;strokeColor=#000000;exitX=0.5;exitY=0;exitDx=0;exitDy=0;" parent="1" source="330" target="289" edge="1">
          <mxGeometry width="50" height="50" relative="1" as="geometry">
            <mxPoint x="-55" y="570" as="sourcePoint" />
            <mxPoint x="-54.989999999999895" y="231" as="targetPoint" />
          </mxGeometry>
        </mxCell>
        <mxCell id="337" value="" style="endArrow=none;dashed=1;html=1;rounded=0;entryX=0.5;entryY=1;entryDx=0;entryDy=0;strokeWidth=2;strokeColor=#000000;" parent="1" edge="1">
          <mxGeometry width="50" height="50" relative="1" as="geometry">
            <mxPoint x="394.91" y="560" as="sourcePoint" />
            <mxPoint x="394.91" y="550" as="targetPoint" />
          </mxGeometry>
        </mxCell>
      </root>
    </mxGraphModel>
  </diagram>
</mxfile>
